<?xml version="1.0" encoding="utf-8"?>
<!-- Generator: Adobe Illustrator 21.0.0, SVG Export Plug-In . SVG Version: 6.00 Build 0)  -->
<svg version="1.1" id="Layer_1" xmlns="http://www.w3.org/2000/svg" xmlns:xlink="http://www.w3.org/1999/xlink" x="0px" y="0px"
	 viewBox="0 0 391.5 76.3" style="enable-background:new 0 0 391.5 76.3;" xml:space="preserve">
<style type="text/css">
	.st0{fill:#22538E;}
	.st1{fill:#9B9B9F;}
</style>
<title>logo-unopack</title>
<path class="st0" d="M42.2,20.5H28.8v17.4c0.2,2.3-0.7,4.6-2.4,6.2c-1.7,1.4-3.8,2.1-6,2c-2.3,0-4-0.6-5.1-1.8
	c-1.2-1.2-1.8-3.3-1.8-6.1V20.5H0v21.9c0,4.9,1.4,8.5,4.2,10.8c2.5,2,5.9,3,10.4,3c3,0,6-0.5,8.7-1.7c2.2-0.9,4.2-2.3,5.7-4.2h0.1
	v4.5h13.1V20.5 M85.5,22.8c-2.6-2.1-6-3.1-10.4-3.1c-3-0.1-6,0.5-8.8,1.6c-2.2,0.9-4.2,2.4-5.7,4.2h-0.2v-5h-13v34.4h13.4V38
	c-0.1-2.3,0.7-4.6,2.4-6.2c1.7-1.4,3.8-2.1,6-2c4.7,0,7,2.2,7,6.5v18.6h13.3V32.3C89.6,28.2,88.2,25,85.5,22.8 M133.9,24.5
	c-4-3.1-9.8-4.6-17.4-4.6S103,21.5,99,24.5c-4,3.1-6,7.6-6,13.5s2,10.5,6,13.6c4,3.1,9.8,4.6,17.4,4.6c7.6,0,13.4-1.5,17.4-4.6
	c4.1-3.1,6.1-7.6,6.1-13.6S138,27.6,133.9,24.5 M116.4,28.6c3,0,5.4,0.8,7.1,2.4s2.5,3.9,2.6,7.1c0,3.1-0.9,5.5-2.6,7.2
	c-1.7,1.6-4,2.3-7,2.3c-2.6,0.2-5.1-0.7-7.1-2.3c-1.7-1.7-2.6-4-2.6-7.2c0-3.1,0.9-5.5,2.6-7.1C111.4,29.3,113.9,28.5,116.4,28.6
	 M352.1,7.5c0-2-0.8-3.9-2.2-5.2c-1.4-1.4-3.3-2.2-5.2-2.2c-2,0-3.9,0.8-5.2,2.2c-1.4,1.4-2.2,3.3-2.1,5.2v40c0,2,0.7,3.9,2.1,5.2
	c1.4,1.4,3.3,2.2,5.2,2.2c4.1,0,7.4-3.3,7.5-7.4V7.5z"/>
<path d="M181.5,31.9c0-3.5-0.9-6.2-2.8-8.1c-2.2-2.2-5.5-3.3-9.9-3.3h-25.5v34.5h11.5V43.4h14.6c4.3,0,7.4-1.2,9.6-3.6
	C180.7,37.6,181.6,34.8,181.5,31.9 M154.8,27.6H165c1.3-0.1,2.5,0.2,3.5,1c0.8,0.9,1.2,2.1,1.1,3.2c0.1,1.2-0.3,2.4-1.1,3.3
	c-1,0.8-2.2,1.1-3.5,1h-10.2L154.8,27.6 M228,52.2c-0.2-1.1-0.3-2.3-0.3-3.4v-17c0.2-4.1-2.3-7.8-6.1-9.2c-3.3-1.5-8.4-2.2-15.2-2.2
	c-6.2,0-10.8,0.6-13.9,2c-4,1.5-6.8,5.2-7.1,9.5h13.1c0.3-1.3,1.1-2.5,2.4-3.1c1.7-0.8,3.6-1.2,5.4-1c5.5,0,8.3,1.2,8.3,3.6
	c0.1,0.7-0.2,1.4-0.7,1.9c-1,0.5-2.1,0.8-3.2,0.8l-13.1,0.9c-4.9,0.3-8.5,1.2-10.8,2.8c-2.5,1.7-3.7,4.4-3.7,8.1
	c0,7,5.5,10.5,16.4,10.5c3,0.1,6-0.2,8.9-0.8c2.6-0.6,4.9-1.8,6.9-3.6c0,1.1,0.3,2.1,0.7,3.1H229C228.5,54.1,228.2,53.2,228,52.2
	 M209.8,40.2c1.7-0.2,3.4-0.5,5.1-0.9v2c0.1,2.2-1.1,4.3-3.1,5.5c-2.1,1.3-5,2-8.8,2c-1.5,0.1-3-0.3-4.2-1c-1-0.7-1.6-1.8-1.6-3
	c0-2,1.2-3.1,3.8-3.4L209.8,40.2 M255.6,28.7c5.3,0,8.3,1.9,8.9,5.8H278c-1-9.6-8.6-14.5-22.6-14.5c-7.4,0-13.1,1.5-17.2,4.5
	c-4.2,3.1-6.4,7.7-6.4,13.7c0,6.1,2.1,10.7,6.2,13.8c4,2.9,9.8,4.4,17.4,4.4c7.1,0,12.6-1.3,16.4-3.9c3.5-2.4,5.8-6.2,6.9-11.2
	h-13.9c-0.8,4.3-3.9,6.4-9.1,6.4c-3.2,0-5.6-0.8-7.3-2.5c-1.8-1.9-2.7-4.4-2.6-7c-0.2-2.6,0.8-5.1,2.6-7
	C250.4,29.5,253,28.6,255.6,28.7 M323.1,20.5h-15.3L293.4,34V20.5H282v34.5h11.4v-9.7l4.9-4L309,54.9h15.3L307.5,34L323.1,20.5
	 M369.6,22.3c-2.9-2.9-7.6-2.9-10.5,0c-1.4,1.4-2.2,3.3-2.2,5.2v19.9c0,4.1,3.4,7.4,7.5,7.4c2,0,3.8-0.7,5.2-2.2
	c1.4-1.4,2.2-3.3,2.2-5.2V27.5C371.8,25.6,371,23.7,369.6,22.3z"/>
<path class="st1" d="M389.4,52.7c1.4-1.4,2.2-3.3,2.1-5.2v-6.3c0-2-0.7-3.9-2.1-5.2c-2.9-2.9-7.6-2.9-10.5,0
	c-1.4,1.4-2.2,3.3-2.2,5.2v6.3c0,4.1,3.4,7.4,7.5,7.4C386.1,54.8,388,54.1,389.4,52.7z"/>
<path d="M143.2,75.8v-8.7h1.1v8.7L143.2,75.8z"/>
<path d="M154.3,75.9l-4.4-6.8l-0.2-0.3l-0.1-0.2l-0.1-0.3v7.5h-1.1v-8.7h1.4l4.3,6.6l0.1,0.2l0.2,0.4l0.1,0.1v-7.3h1.1v8.7H154.3z"
	/>
<path d="M165.7,75.7c-0.7,0.2-1.4,0.3-2.2,0.3c-1.2,0-2.4-0.4-3.3-1.3c-0.9-0.8-1.4-2-1.3-3.2c0-1.2,0.4-2.4,1.3-3.2
	c0.9-0.9,2-1.3,3.3-1.3c0.3,0,0.7,0,1,0.1c0.3,0,0.5,0.1,0.8,0.1c0.2,0,0.4,0.1,0.5,0.2l0.6,0.3l-0.4,0.9l-0.5-0.2
	c-0.6-0.2-1.3-0.3-1.9-0.3c-0.5,0-1.1,0.1-1.6,0.2c-0.5,0.2-0.9,0.6-1.3,1.1c-0.5,0.6-0.7,1.4-0.7,2.1c0,1,0.4,1.9,1.1,2.6
	c0.7,0.7,1.7,1,2.7,1c0.5,0,1-0.1,1.4-0.2V72h1.1v3.6L165.7,75.7z"/>
<path d="M170.3,75.8v-8.7h4.9v0.9h-3.8V71h3.1v0.9h-3.1V75h3.9v0.9L170.3,75.8z"/>
<path d="M184.6,75.9l-4.4-6.8l-0.2-0.3l-0.1-0.2l-0.1-0.3v7.5h-1.1v-8.7h1.4l4.3,6.6l0.1,0.2l0.2,0.4l0.1,0.1v-7.3h1.1v8.7H184.6z"
	/>
<path d="M190,75.8v-8.7h1v8.7L190,75.8z"/>
<path d="M195.2,75.8v-8.7h4.9v0.9h-3.8V71h3.1v0.9h-3.1V75h3.9v0.9L195.2,75.8z"/>
<path d="M208.2,75.9l-2.4-3.7h-1.1v3.7h-1.1v-8.7h2.6c0.4,0,0.8,0,1.2,0.1c0.4,0.1,0.7,0.4,1,0.7c0.4,0.4,0.6,1,0.5,1.6
	c0,0.6-0.1,1.1-0.5,1.6c-0.2,0.2-0.5,0.5-0.8,0.6c-0.2,0.1-0.5,0.2-0.8,0.2l2.6,3.9L208.2,75.9z M207.4,68.3
	c-0.1-0.1-0.3-0.2-0.4-0.2c-0.3,0-0.5-0.1-0.8-0.1h-1.4v3.1h1.4c0.8,0.1,1.6-0.4,1.7-1.2c0-0.1,0-0.3,0-0.4
	C207.9,69.1,207.7,68.6,207.4,68.3z"/>
<path d="M212.6,75.8v-8.7h1.1v8.7L212.6,75.8z"/>
<path d="M223,75.9l-0.9-2.6h-3.5l-0.9,2.6h-1.1l3.2-8.9h1.1l3.2,8.9H223z M220.4,68.4l-1.4,3.9h2.8L220.4,68.4z"/>
<path d="M233.5,75.8v-8.7h4.9v0.9h-3.8V71h3.1v0.9h-3.1V75h3.9v0.9L233.5,75.8z"/>
<path d="M247.8,75.9l-4.4-6.8l-0.2-0.3l-0.1-0.2l-0.1-0.3v7.5h-1.1v-8.7h1.4l4.3,6.6l0.1,0.2l0.2,0.4l0.1,0.1v-7.3h1v8.7H247.8z"/>
<path d="M262.2,72.7c-0.2,0-0.4,0-0.6,0l-0.7-0.1v3.3h-1.1v-8.7h2.7c0.4,0,0.9,0,1.3,0.2c0.4,0.1,0.7,0.4,1,0.7
	c0.4,0.5,0.6,1.1,0.5,1.7c0,0.8-0.3,1.6-0.8,2.1C263.8,72.4,263,72.7,262.2,72.7z M263.7,68.5c-0.4-0.3-0.9-0.4-1.3-0.4h-1.5v3.6
	l0.7,0.1h0.5c0.4,0,0.8,0,1.2-0.2c0.3-0.1,0.6-0.4,0.7-0.7c0.2-0.3,0.3-0.7,0.3-1.1C264.2,69.3,264,68.8,263.7,68.5L263.7,68.5z"/>
<path d="M268.4,75.8v-8.7h1.1v7.8h3.9v0.9L268.4,75.8z"/>
<path d="M281.3,75.9l-0.9-2.6h-3.5l-0.9,2.6h-1.1l3.2-8.9h1.1l3.2,8.9H281.3z M278.7,68.4l-1.4,3.9h2.8L278.7,68.4z"/>
<path d="M289.7,68.7c-0.3-0.2-0.7-0.3-1-0.5c-0.3-0.1-0.7-0.2-1.1-0.2c-0.4,0-0.8,0.1-1.2,0.3c-0.3,0.2-0.5,0.5-0.5,0.9
	c0,0.3,0.2,0.6,0.4,0.8c0.5,0.4,1,0.7,1.5,1c0.5,0.3,1,0.6,1.5,0.9c0.2,0.2,0.4,0.5,0.6,0.8c0.1,0.3,0.2,0.6,0.2,0.9
	c0,0.7-0.3,1.3-0.8,1.8c-0.6,0.5-1.3,0.7-2.1,0.7c-0.5,0-1-0.1-1.4-0.2c-0.5-0.2-0.9-0.4-1.3-0.7l0.5-0.8l0.6,0.3
	c0.2,0.1,0.4,0.2,0.6,0.3c0.3,0.1,0.7,0.2,1,0.2c0.4,0,0.9-0.1,1.2-0.3c0.3-0.2,0.5-0.6,0.4-1c0-0.3-0.1-0.5-0.2-0.7
	c-0.2-0.3-0.4-0.5-0.7-0.6l-1.4-0.8c-0.5-0.3-1-0.6-1.4-1.1c-0.3-0.3-0.4-0.8-0.4-1.2c0-0.7,0.3-1.3,0.8-1.7
	c0.6-0.4,1.3-0.7,2.1-0.6c0.5,0,0.9,0,1.4,0.2c0.4,0.1,0.8,0.3,1.1,0.6L289.7,68.7z"/>
<path d="M296.3,68.1v7.8h-1.1v-7.8h-2.9v-0.9h6.9v0.9H296.3z"/>
<path d="M302,75.8v-8.7h1.1v8.7L302,75.8z"/>
<path d="M313,68.7c-0.6-0.4-1.4-0.7-2.1-0.7c-0.9,0-1.7,0.4-2.3,1c-0.6,0.7-0.9,1.5-0.9,2.4c0,0.9,0.3,1.8,0.9,2.5
	c0.6,0.7,1.5,1,2.4,1c0.7,0,1.4-0.1,2-0.4l0.3,0.8c-0.3,0.1-0.5,0.2-0.6,0.3s-0.4,0.1-0.7,0.2c-0.3,0.1-0.7,0.1-1,0.1
	c-1.2,0-2.4-0.4-3.2-1.3c-0.8-0.9-1.3-2.1-1.2-3.3c0-1.2,0.4-2.3,1.2-3.2c0.8-0.8,1.9-1.3,3.1-1.3c0.5,0,1,0.1,1.5,0.2
	c0.4,0.2,0.8,0.4,1.1,0.6L313,68.7z"/>
<path d="M320.1,76c-1.2,0-2.3-0.4-3.1-1.2c-1.6-1.8-1.6-4.6,0-6.4c1.7-1.7,4.5-1.7,6.2,0c1.6,1.8,1.6,4.6,0,6.4
	C322.4,75.6,321.3,76,320.1,76z M320.1,67.9c-0.9,0-1.7,0.4-2.2,1c-1.2,1.4-1.2,3.6,0,5c1,1.2,2.9,1.4,4.1,0.4
	c0.1-0.1,0.3-0.2,0.4-0.4c1.2-1.4,1.2-3.6,0-5C321.8,68.3,321,68,320.1,67.9L320.1,67.9z"/>
</svg>
