<?xml version="1.0" standalone="no"?>
<!DOCTYPE svg PUBLIC "-//W3C//DTD SVG 20010904//EN"
 "http://www.w3.org/TR/2001/REC-SVG-20010904/DTD/svg10.dtd">
<svg version="1.0" xmlns="http://www.w3.org/2000/svg"
 width="180.000000pt" height="180.000000pt" viewBox="0 0 180.000000 180.000000"
 preserveAspectRatio="xMidYMid meet">

<g transform="translate(0.000000,180.000000) scale(0.100000,-0.100000)"
fill="#000000" stroke="none">
<path d="M0 900 l0 -900 900 0 900 0 0 900 0 900 -900 0 -900 0 0 -900z m547
395 c150 -192 277 -363 282 -378 7 -18 7 -37 1 -53 -6 -14 -132 -183 -281
-375 l-270 -349 -75 0 -75 0 60 78 c33 42 161 208 285 367 124 160 226 297
226 305 0 8 -128 181 -285 383 -157 202 -285 370 -285 373 0 3 33 4 73 2 l72
-3 272 -350z m160 102 c105 -136 195 -248 198 -248 3 0 93 112 198 248 l192
248 73 3 c39 2 72 0 72 -3 0 -15 -493 -641 -511 -649 -12 -6 -29 -6 -44 0 -15
5 -123 136 -270 326 -135 174 -245 319 -245 323 0 3 32 5 72 3 l72 -3 193
-248z m973 248 c0 -2 -128 -170 -285 -372 -157 -202 -285 -375 -285 -383 0 -8
102 -145 226 -305 124 -159 252 -325 285 -367 l60 -78 -75 0 -75 0 -270 349
c-149 192 -275 361 -281 377 -8 21 -7 35 8 63 16 32 483 642 535 699 17 19 31
22 89 22 37 0 68 -2 68 -5z m-503 -1162 c131 -169 244 -315 251 -325 12 -17 9
-18 -61 -18 l-74 0 -194 250 c-146 189 -196 247 -204 237 -5 -7 -93 -120 -194
-250 l-184 -237 -74 0 c-70 0 -73 1 -61 18 7 10 120 156 251 325 229 295 239
307 272 307 33 0 43 -12 272 -307z"/>
</g>
</svg>
